<svg xmlns="http://www.w3.org/2000/svg" viewBox="0 0 350 350" width="100%" height="100%">
  <rect width="100%" height="100%" fill="#101014"/>
  <!-- Matrix grid background -->
  <g stroke="#1d1d26" stroke-width="1">
    <path d="M 0,25 L 350,25 M 0,50 L 350,50 M 0,75 L 350,75 M 0,100 L 350,100 M 0,125 L 350,125 M 0,150 L 350,150 M 0,175 L 350,175 M 0,200 L 350,200 M 0,225 L 350,225 M 0,250 L 350,250 M 0,275 L 350,275 M 0,300 L 350,300 M 0,325 L 350,325"/>
    <path d="M 25,0 L 25,350 M 50,0 L 50,350 M 75,0 L 75,350 M 100,0 L 100,350 M 125,0 L 125,350 M 150,0 L 150,350 M 175,0 L 175,350 M 200,0 L 200,350 M 225,0 L 225,350 M 250,0 L 250,350 M 275,0 L 275,350 M 300,0 L 300,350 M 325,0 L 325,350"/>
  </g>
  <!-- Chart axes -->
  <g stroke="#444455" stroke-width="1.5">
    <line x1="40" y1="175" x2="310" y2="175"/>
    <line x1="175" y1="40" x2="175" y2="310"/>
  </g>
  <!-- Data Curve (Polynomial graph line) -->
  <path d="M 50,290 Q 110,290 140,210 T 210,110 Q 250,50 300,50" fill="none" stroke="#00ffa3" stroke-width="3"/>
  <path d="M 50,290 Q 110,290 140,210 T 210,110 Q 250,50 300,50" fill="none" stroke="#00e5ff" stroke-width="1" opacity="0.8"/>
  <!-- Scatter plots -->
  <circle cx="90" cy="280" r="4" fill="#666677"/>
  <circle cx="120" cy="250" r="4" fill="#666677"/>
  <circle cx="150" cy="190" r="4" fill="#00ffa3"/>
  <circle cx="180" cy="150" r="4" fill="#666677"/>
  <circle cx="210" cy="110" r="4" fill="#00e5ff"/>
  <circle cx="240" cy="80" r="4" fill="#666677"/>
  <!-- Mathematical text indicators -->
  <text x="50" y="70" font-family="monospace" font-size="10" fill="#666677">f(x) = sin(x) + theta_0</text>
  <text x="50" y="85" font-family="monospace" font-size="10" fill="#666677">GRADIENT: desc_0.142</text>
  <text x="240" y="290" font-family="monospace" font-size="10" fill="#00ffa3">FIT: OPTIMAL</text>
</svg>
