<svg xmlns="http://www.w3.org/2000/svg" viewBox="0 0 400 400" width="100%" height="100%">
  <rect width="100%" height="100%" fill="#121216"/>
  <!-- Editor container -->
  <rect x="20" y="20" width="360" height="360" rx="6" fill="#181822" stroke="#22222a" stroke-width="1.5"/>
  <!-- Window buttons -->
  <circle cx="45" cy="40" r="5" fill="#ff5f56"/>
  <circle cx="60" cy="40" r="5" fill="#ffbd2e"/>
  <circle cx="75" cy="40" r="5" fill="#27c93f"/>
  <text x="160" y="44" font-family="monospace" font-size="11" fill="#444455">main.py - VIT_ML</text>
  <!-- Mock code lines -->
  <g fill="none" stroke-linecap="round">
    <!-- line 1: import tensorflow as tf -->
    <rect x="40" y="80" width="60" height="8" rx="3" fill="#ff79c6"/>
    <rect x="110" y="80" width="100" height="8" rx="3" fill="#8be9fd"/>
    <rect x="220" y="80" width="30" height="8" rx="3" fill="#ff79c6"/>
    <rect x="260" y="80" width="20" height="8" rx="3" fill="#f1fa8c"/>
    <!-- line 2: class AthleteMLModel(nn.Module): -->
    <rect x="40" y="110" width="45" height="8" rx="3" fill="#ff79c6"/>
    <rect x="95" y="110" width="120" height="8" rx="3" fill="#50fa7b"/>
    <rect x="225" y="110" width="80" height="8" rx="3" fill="#f1fa8c"/>
    <!-- line 3:   def __init__(self, features): -->
    <rect x="60" y="140" width="30" height="8" rx="3" fill="#ff79c6"/>
    <rect x="100" y="140" width="70" height="8" rx="3" fill="#50fa7b"/>
    <rect x="180" y="140" width="60" height="8" rx="3" fill="#ffb86c"/>
    <!-- line 4:     super().__init__() -->
    <rect x="80" y="170" width="40" height="8" rx="3" fill="#f1fa8c"/>
    <rect x="130" y="170" width="75" height="8" rx="3" fill="#50fa7b"/>
    <!-- line 5:     self.dense = tf.layers.dense(128, activation='relu') -->
    <rect x="80" y="200" width="30" height="8" rx="3" fill="#ffb86c"/>
    <rect x="120" y="200" width="45" height="8" rx="3" fill="#f1fa8c"/>
    <rect x="175" y="200" width="80" height="8" rx="3" fill="#50fa7b"/>
    <rect x="265" y="200" width="25" height="8" rx="3" fill="#bd93f9"/>
    <rect x="300" y="200" width="50" height="8" rx="3" fill="#f1fa8c"/>
    <!-- line 6:     self.dropout = tf.layers.dropout(0.2) -->
    <rect x="80" y="230" width="30" height="8" rx="3" fill="#ffb86c"/>
    <rect x="120" y="230" width="55" height="8" rx="3" fill="#f1fa8c"/>
    <rect x="185" y="230" width="90" height="8" rx="3" fill="#50fa7b"/>
    <rect x="285" y="230" width="30" height="8" rx="3" fill="#bd93f9"/>
    <!-- line 7: # Optimize recommendation system -->
    <rect x="60" y="260" width="220" height="8" rx="3" fill="#6272a4"/>
    <!-- line 8: return recommendation -->
    <rect x="60" y="290" width="50" height="8" rx="3" fill="#ff79c6"/>
    <rect x="120" y="290" width="100" height="8" rx="3" fill="#f1fa8c"/>
  </g>
  <!-- Active glowing cursor -->
  <rect x="225" y="288" width="2" height="12" fill="#00e5ff" opacity="0.8"/>
  <!-- Status bar -->
  <rect x="20" y="340" width="360" height="40" fill="#14141c" stroke="#22222a" stroke-width="1"/>
  <text x="35" y="364" font-family="monospace" font-size="10" fill="#6272a4">UTF-8</text>
  <text x="100" y="364" font-family="monospace" font-size="10" fill="#6272a4">Python 3.10.4</text>
  <text x="320" y="364" font-family="monospace" font-size="10" fill="#00ffa3">Ln 29, Col 12</text>
</svg>
